<?xml version="1.0" encoding="utf-8"?>
<!-- Generator: Adobe Illustrator 24.3.0, SVG Export Plug-In . SVG Version: 6.00 Build 0)  -->
<svg version="1.1" id="Layer_1" xmlns="http://www.w3.org/2000/svg" xmlns:xlink="http://www.w3.org/1999/xlink" x="0px" y="0px"
	 viewBox="0 0 24 24" style="enable-background:new 0 0 24 24;" xml:space="preserve">
<style type="text/css">
	.st0{fill:#FFFFFF;}
</style>
<path class="st0" d="M12,0C5.3725829,0,0,5.3725829,0,12s5.3725829,12,12,12s12-5.3725834,12-12
	C23.992836,5.3755531,18.6244469,0.007165,12,0z M12.25,5c0.8284273,0,1.5,0.6715727,1.5,1.5S13.0784273,8,12.25,8
	s-1.5-0.6715727-1.5-1.5S11.4215727,5,12.25,5z M14.5,18.5h-4c-0.5522852,0-1-0.4477158-1-1s0.4477148-1,1-1h0.75
	c0.1380711,0,0.25-0.1119289,0.25-0.25v-4.5c0-0.1380711-0.1119289-0.25-0.25-0.25H10.5c-0.5522852,0-1-0.4477148-1-1
	s0.4477148-1,1-1h1c1.1045694,0,2,0.8954306,2,2v4.75c0,0.1380711,0.1119289,0.25,0.25,0.25h0.75c0.5522852,0,1,0.4477158,1,1
	S15.0522852,18.5,14.5,18.5z"/>
</svg>
